<svg id="Layer_1" data-name="Layer 1" xmlns="http://www.w3.org/2000/svg" xmlns:xlink="http://www.w3.org/1999/xlink" viewBox="0 0 720.94 961.26"><defs><style>.cls-1{fill:none;}.cls-2{fill:#dc143c;}.cls-3{clip-path:url(#clip-path);}</style><clipPath id="clip-path" transform="translate(82.6 -156.83)"><path class="cls-1" d="M202.26,346.3a162.67,162.67,0,0,0-40,44.09C128.73,445.08,139,503.13,142.54,519.91a219.89,219.89,0,0,0,28.89,69.4c13.3,20.83,24.72,38.72,47.5,48.65s44.85,6.62,55.56,4.17A324.88,324.88,0,0,0,387,601.85a320.17,320.17,0,0,0,51.39-37.5c15.19-17.16,19.44-32.35,20.83-41.66,5-33.31-16-61.67-55.38-114.76-14.05-18.95-21.29-28.62-32.12-38-9.25-8-36.4-31-79.17-37.5A154.12,154.12,0,0,0,202.26,346.3Z"/></clipPath></defs><path class="cls-2" d="M200.82,343.94a163.15,163.15,0,0,0-40,44.09c-33.55,54.69-23.32,112.74-19.73,129.52A220,220,0,0,0,170,587c13.3,20.83,24.72,38.71,47.5,48.65s44.85,6.61,55.56,4.17a325,325,0,0,0,112.5-40.28A320.33,320.33,0,0,0,436.93,562c15.2-17.17,19.44-32.35,20.83-41.67,5-33.31-16-61.67-55.38-114.76-14-18.95-21.29-28.61-32.12-38-9.24-8-36.4-31-79.16-37.5A154.1,154.1,0,0,0,200.82,343.94Z" transform="translate(82.6 -156.83)"/><g class="cls-3"><image width="5400" height="7200" transform="scale(0.13)" xlink:href="C:%5CUsers%5CBitsOne%5CPictures%5Cmwaanje.png"/></g></svg>