<svg id="Layer_1" data-name="Layer 1" xmlns="http://www.w3.org/2000/svg" viewBox="0 0 321.69 314.02"><defs><style>.cls-1{fill:#dc143c;}</style></defs><path class="cls-1" d="M212.22,354.55a163.15,163.15,0,0,0-40,44.09c-33.55,54.69-23.32,112.74-19.73,129.52a220.23,220.23,0,0,0,28.88,69.41c13.31,20.83,24.73,38.71,47.51,48.65s44.85,6.61,55.55,4.16a324.69,324.69,0,0,0,112.5-40.27,320.94,320.94,0,0,0,51.39-37.5c15.2-17.17,19.44-32.36,20.84-41.67,5-33.31-16-61.67-55.38-114.76-14.05-18.95-21.29-28.62-32.12-38-9.25-8-36.4-31-79.17-37.5A154.12,154.12,0,0,0,212.22,354.55Z" transform="translate(-148.2 -338.93)"/></svg>